HIERARCHY
ROOT Hips
{
	OFFSET 0.00000 0.00000 0.00000
	CHANNELS 6 Xposition Yposition Zposition Zrotation Yrotation Xrotation 
	JOINT LHipJoint
	{
		OFFSET 0 0 0
		CHANNELS 3 Zrotation Yrotation Xrotation
		JOINT LeftUpLeg
		{
			OFFSET 1.37959 -1.78713 0.86582
			CHANNELS 3 Zrotation Yrotation Xrotation
			JOINT LeftLeg
			{
				OFFSET 2.54611 -6.99539 0.00000
				CHANNELS 3 Zrotation Yrotation Xrotation
				JOINT LeftFoot
				{
					OFFSET 2.59951 -7.14211 0.00000
					CHANNELS 3 Zrotation Yrotation Xrotation
					JOINT LeftToeBase
					{
						OFFSET 0.18493 -0.50810 1.96120
						CHANNELS 3 Zrotation Yrotation Xrotation
						End Site
						{
							OFFSET 0.00000 -0.00000 1.02054
						}
					}
				}
			}
		}
	}
	JOINT RHipJoint
	{
		OFFSET 0 0 0
		CHANNELS 3 Zrotation Yrotation Xrotation
		JOINT RightUpLeg
		{
			OFFSET -1.33564 -1.78713 0.86582
			CHANNELS 3 Zrotation Yrotation Xrotation
			JOINT RightLeg
			{
				OFFSET -2.52705 -6.94302 0.00000
				CHANNELS 3 Zrotation Yrotation Xrotation
				JOINT RightFoot
				{
					OFFSET -2.55964 -7.03257 0.00000
					CHANNELS 3 Zrotation Yrotation Xrotation
					JOINT RightToeBase
					{
						OFFSET -0.25804 -0.70896 2.12109
						CHANNELS 3 Zrotation Yrotation Xrotation
						End Site
						{
							OFFSET -0.00000 -0.00000 1.11821
						}
					}
				}
			}
		}
	}
	JOINT LowerBack
	{
		OFFSET 0 0 0
		CHANNELS 3 Zrotation Yrotation Xrotation
		JOINT Spine
		{
			OFFSET -0.02031 2.24248 -0.18900
			CHANNELS 3 Zrotation Yrotation Xrotation
			JOINT Spine1
			{
				OFFSET 0.08342 2.24689 -0.03799
				CHANNELS 3 Zrotation Yrotation Xrotation
				JOINT Neck
				{
					OFFSET 0 0 0
					CHANNELS 3 Zrotation Yrotation Xrotation
					JOINT Neck1
					{
						OFFSET -0.11607 1.55844 0.24628
						CHANNELS 3 Zrotation Yrotation Xrotation
						JOINT Head
						{
							OFFSET 0.06877 1.60174 -0.17013
							CHANNELS 3 Zrotation Yrotation Xrotation
							End Site
							{
								OFFSET 0.03358 1.61266 -0.08543
							}
						}
					}
				}
				JOINT LeftShoulder
				{
					OFFSET 0 0 0
					CHANNELS 3 Zrotation Yrotation Xrotation
					JOINT LeftArm
					{
						OFFSET 3.47537 0.55866 -0.72348
						CHANNELS 3 Zrotation Yrotation Xrotation
						JOINT LeftForeArm
						{
							OFFSET 5.38154 -0.00000 0.00000
							CHANNELS 3 Zrotation Yrotation Xrotation
							JOINT LeftHand
							{
								OFFSET 3.33312 -0.00000 0.00000
								CHANNELS 3 Zrotation Yrotation Xrotation
								JOINT LeftFingerBase
								{
									OFFSET 0 0 0
									CHANNELS 3 Zrotation Yrotation Xrotation
									JOINT LeftHandIndex1
									{
										OFFSET 0.71079 -0.00000 0.00000
										CHANNELS 3 Zrotation Yrotation Xrotation
										End Site
										{
											OFFSET 0.57306 -0.00000 0.00000
										}
									}
								}
								JOINT LThumb
								{
									OFFSET 0 0 0
									CHANNELS 3 Zrotation Yrotation Xrotation
									End Site
									{
										OFFSET 0.58181 -0.00000 0.58181
									}
								}
							}
						}
					}
				}
				JOINT RightShoulder
				{
					OFFSET 0 0 0
					CHANNELS 3 Zrotation Yrotation Xrotation
					JOINT RightArm
					{
						OFFSET -3.27844 0.90739 -0.35708
						CHANNELS 3 Zrotation Yrotation Xrotation
						JOINT RightForeArm
						{
							OFFSET -5.16954 -0.00000 0.00000
							CHANNELS 3 Zrotation Yrotation Xrotation
							JOINT RightHand
							{
								OFFSET -3.38287 -0.00000 0.00000
								CHANNELS 3 Zrotation Yrotation Xrotation
								JOINT RightFingerBase
								{
									OFFSET 0 0 0
									CHANNELS 3 Zrotation Yrotation Xrotation
									JOINT RightHandIndex1
									{
										OFFSET -0.81797 -0.00000 0.00000
										CHANNELS 3 Zrotation Yrotation Xrotation
										End Site
										{
											OFFSET -0.65947 -0.00000 0.00000
										}
									}
								}
								JOINT RThumb
								{
									OFFSET 0 0 0
									CHANNELS 3 Zrotation Yrotation Xrotation
									End Site
									{
										OFFSET -0.66953 -0.00000 0.66953
									}
								}
							}
						}
					}
				}
			}
		}
	}
}
MOTION
Frames: 8
Frame Time: .0083333
13.3738 16.0188 19.0736 0 0 0 0 0 0 -21 0 0 0 0 0 0 0 0 0 0 0 0 0 0 21 0 0 0 0 0 0 0 0 0 0 0 0 0 0 0 0 0 0 0 0 0 0 -16 0 0 21 0 0 11 0 0 0 -8 0 0 0 0 0 0 0 0 0 0 0 0 0 0 0 0 0 0 0 0 8 0 0 0 0 0 0 0 0 0 0 0 0 0 0 0 0 0
13.3738 16.0188 19.0736 -44.0316 -56.3015 56.5460 0.0000 0.0000 0.0000 0.0396 -12.7397 -58.7990 17.5892 19.8601 82.9354 -0.5796 -17.8282 -6.1182 0.5064 4.5617 12.6625 0.0000 0.0000 0.0000 40.7136 -13.7886 -2.0022 -2.0221 -8.9120 25.5204 -1.9523 -6.0215 -29.1123 -0.9959 6.3509 -17.8060 16.2023 0.0620 16.6486 7.8026 3.3596 1.1032 -1.2704 1.0130 -7.7426 -12.6382 -21.6866 6.6171 31.1491 -33.9167 5.0564 8.2809 -16.8624 8.4581 0.0000 -0.0000 0.0000 -85.8747 -43.6523 84.8593 84.6125 -59.8900 -55.3360 -0.0000 -0.0000 45.0663 17.8797 43.2433 12.4627 -7.1250 0.0000 -0.0000 -32.2134 72.4128 -21.5966 0.0000 -0.0000 0.0000 91.1609 26.5779 -17.7590 -12.7486 20.9178 -2.3628 0.0000 -0.0000 -33.5926 -48.6405 23.8354 -24.6564 7.1250 -0.0000 -0.0000 -11.3982 3.1983 -12.2560
13.4032 16.0346 18.9425 -38.4503 -54.9683 51.8235 0.0000 0.0000 0.0000 -1.2068 -14.6485 -57.7970 17.0556 19.7909 81.3624 -0.3323 -18.2753 -9.5768 0.1287 2.3126 6.3704 0.0000 0.0000 0.0000 40.5816 -15.2265 -3.9905 -2.1569 -9.1855 26.3774 -2.1815 -4.8066 -29.9397 -0.8409 5.8493 -16.3479 16.7473 -1.0965 15.9840 7.0434 1.8233 0.8724 -2.0535 0.2656 -7.7984 -12.7503 -21.3950 6.3641 31.2155 -33.7990 5.8565 8.3129 -16.7359 8.7828 -0.0000 -0.0000 0.0000 -87.7676 -44.4498 87.7163 81.5829 -59.7306 -52.7171 -0.0000 -0.0000 44.8714 17.3878 44.0552 12.2843 -7.1250 0.0000 -0.0000 -34.5482 72.8622 -23.5847 -0.0000 -0.0000 0.0000 92.2774 25.7712 -16.9171 -12.3500 20.3275 -2.2224 0.0000 -0.0000 -32.3993 -48.0891 22.6451 -23.2169 7.1250 -0.0000 -0.0000 -11.3972 1.4528 -11.9185
13.4287 16.0680 18.8151 -33.3213 -53.6774 47.6559 0.0000 0.0000 0.0000 -2.6982 -16.2779 -57.0007 16.4770 19.6998 79.6496 -0.0719 -18.4618 -12.3271 0.0242 1.0047 2.7617 0.0000 0.0000 0.0000 40.2375 -16.8726 -6.0373 -2.2556 -9.3792 26.9890 -2.2760 -4.1668 -30.2211 -0.9185 6.1061 -17.0926 16.9018 -2.1656 15.3417 6.3386 0.3457 0.5978 -2.5837 -0.4518 -7.9761 -12.8873 -21.0436 6.2251 31.1777 -33.5670 6.6382 8.3660 -16.5703 9.0360 0.0000 -0.0000 0.0000 -89.8136 -44.8480 90.1882 78.4274 -59.4879 -49.9951 -0.0000 -0.0000 44.5801 16.5679 43.8167 11.6388 -7.1250 0.0000 -0.0000 -34.9267 72.3906 -23.5181 0.0000 -0.0000 0.0000 94.9271 30.2505 -46.3316 -10.7420 17.8917 -1.6958 0.0000 -0.0000 -0.3649 -43.0865 23.3064 -20.3079 7.1250 -0.0000 -0.0000 -8.3594 0.2701 -8.4894
13.4523 16.1024 18.6800 -29.1154 -52.1282 44.2788 0.0000 0.0000 0.0000 -4.0899 -17.3484 -56.5134 15.8574 19.5835 77.8065 0.0745 -18.8295 -13.8928 0.1323 2.3449 6.4598 0.0000 0.0000 0.0000 40.2339 -18.4375 -8.0114 -2.3573 -9.5736 27.6067 -2.2976 -3.9163 -30.2387 -1.0709 6.5784 -18.4722 17.0563 -3.1088 14.6082 5.8166 -1.0231 0.5241 -2.9487 -1.0982 -7.8926 -12.8993 -20.8263 5.9106 31.0316 -33.4459 7.3481 8.3200 -16.4400 9.2754 0.0000 -0.0000 0.0000 -91.8648 -45.2896 92.8045 75.5205 -59.1928 -47.4944 -0.0000 -0.0000 44.0163 16.4582 43.9639 11.5896 -7.1250 0.0000 -0.0000 -35.3732 72.4625 -23.8923 0.0000 -0.0000 0.0000 94.3328 24.1607 -14.3284 -11.7557 19.4373 -2.0203 0.0000 -0.0000 -30.7796 -46.4734 21.0333 -20.6996 7.1250 -0.0000 -0.0000 -10.8697 -1.2578 -10.8265
13.4747 16.1330 18.5318 -25.6182 -50.5898 41.4292 0.0000 0.0000 0.0000 -5.5029 -17.9468 -56.2015 15.2708 19.4551 76.0510 0.0934 -19.0798 -14.2214 0.3179 3.6246 10.0228 0.0000 0.0000 0.0000 40.3396 -19.4782 -9.4897 -2.4282 -9.7062 28.0304 -2.3060 -3.7264 -30.2053 -1.1469 6.8002 -19.1249 17.0382 -3.8844 13.9862 5.3587 -2.1951 0.5764 -3.2042 -1.6370 -7.7121 -12.6664 -20.6836 5.4727 30.8759 -33.3742 7.9632 8.2180 -16.3217 9.4709 -0.0000 0.0000 0.0000 -93.8455 -45.8307 95.7923 72.9223 -58.8688 -45.2664 -0.0000 -0.0000 43.2741 16.9690 44.6037 12.0938 -7.1250 0.0000 -0.0000 -36.2811 73.1199 -25.0407 -0.0000 0.0000 0.0000 95.2281 23.4699 -12.3709 -11.5286 19.0940 -1.9453 0.0000 -0.0000 -29.8169 -45.1080 20.0804 -19.0158 7.1250 -0.0000 -0.0000 -10.2930 -2.9763 -9.9082
13.4977 16.1525 18.3689 -23.0775 -49.1268 39.3199 0.0000 0.0000 0.0000 -6.4904 -18.1796 -56.1937 14.8580 19.3539 74.8085 0.0246 -19.3786 -13.8451 0.5249 4.6431 12.8933 0.0000 0.0000 0.0000 40.6240 -20.1460 -10.5559 -2.4566 -9.7585 28.1982 -2.3232 -3.2075 -30.0837 -1.1635 6.8477 -19.2648 16.9874 -4.5381 13.7372 5.0474 -3.1126 0.5521 -3.3169 -2.0742 -7.7866 -12.5149 -20.3677 5.3362 30.9102 -33.0637 8.4028 8.2898 -16.1380 9.5550 -0.0000 -0.0000 0.0000 -95.8793 -46.1068 98.3308 70.2645 -58.4759 -42.9960 -0.0000 -0.0000 43.1873 16.2565 43.6430 11.3788 -7.1250 0.0000 -0.0000 -34.8924 72.1497 -23.3183 -0.0000 -0.0000 0.0000 96.2489 23.0076 -12.3314 -11.0850 18.4184 -1.8027 0.0000 -0.0000 -26.4141 -44.6473 20.0709 -18.7258 7.1250 -0.0000 -0.0000 -10.0218 -3.1528 -9.6058
13.5130 16.1775 18.2025 -21.4100 -47.8764 37.8179 0.0000 0.0000 0.0000 -7.0309 -18.1227 -56.3506 14.6204 19.2915 74.0906 -0.0680 -19.7100 -13.2908 0.7910 5.6772 15.8507 0.0000 0.0000 0.0000 41.0996 -20.3244 -11.1356 -2.4587 -9.7625 28.2110 -2.2607 -3.5075 -29.8274 -1.4950 7.7238 -21.8782 16.7856 -5.1150 13.8151 4.9795 -3.8729 0.5241 -3.0931 -2.4384 -7.9981 -12.5744 -19.9741 5.3637 30.6918 -32.5478 8.7863 8.3727 -15.8833 9.5149 0.0000 0.0000 0.0000 -97.8413 -46.2887 100.7756 67.4280 -57.9845 -40.5843 -0.0000 -0.0000 43.1586 16.7338 44.0011 11.7971 -7.1250 0.0000 -0.0000 -35.1525 72.5882 -23.8247 0.0000 0.0000 0.0000 96.9171 21.9499 -9.2868 -10.9727 18.2463 -1.7673 0.0000 -0.0000 -25.9803 -45.1737 20.4759 -19.3890 7.1250 -0.0000 -0.0000 -10.2402 -2.4542 -9.9546
